<svg xmlns="http://www.w3.org/2000/svg" viewBox="0 0 726.74 427.57"><defs><style>.cls-1{fill:#181818;stroke:#ec2426;}.cls-1,.cls-2{stroke-miterlimit:10;}.cls-2{fill:none;stroke:#3a54a4;}</style></defs><g id="c2-triggers"><polygon id="store" class="cls-1" points="280.94 321.5 242.06 292.94 104.59 359.72 124.15 408.24 221.98 392.06 280.94 321.5"/><polygon id="marketplace" class="cls-1" points="231.83 278.06 43.15 386.06 43.15 278.06 170.13 218.24 231.83 278.06"/><polygon id="library" class="cls-1" points="237.37 160.15 266.06 126.63 367.8 105.24 462.24 121.02 490.82 155.98 451.8 200.98 367.28 218.24 284.85 200.98 237.37 160.15"/></g><g id="c2-decorations"><g id="lines"><polygon class="cls-2" points="305.72 323.46 420.5 321.37 469.54 372.5 721.54 332.33 726.24 327.11 726.24 193.76 507.63 22.41 515.98 16.67 502.94 7.8 496.67 14.59 479.98 0.5 210.24 0.5 186.24 28.67 176.85 19.28 164.33 34.94 161.72 31.28 126.76 41.2 129.89 57.89 151.8 74.06 0.5 254.59 0.5 427.02 225.5 406.41 305.72 323.46"/><polyline class="cls-2" points="0.5 386.06 220.02 363.37 220.02 352.41 252.11 348.89 252.11 378.9"/><path class="cls-2" d="M.5,370.8H43.15V303.11l2.35-11.35,60.65-70.43h69.26a152.28,152.28,0,0,0,24.26,25.82c30.7,25.82,64.39,33.17,82.57,35.61l2.35-8.22a249.49,249.49,0,0,1,78.26-12.91c16.47,0,45.12,1.95,81.39,14.87v7a211,211,0,0,0,39.91-12.91c14-6.11,32.4-14.36,50.48-31.7a179.11,179.11,0,0,0,13.59-14.1,93.24,93.24,0,0,0,17.71-31.29c8.88-26.93,3-50.85-.39-61.43l15.26-5.48,107.61,87.13v66.65l23.48.79V237.37l14.35-.39"/><polyline class="cls-2" points="726.24 288.63 507.24 320.33 508.8 288.63 473.59 288.63 475.42 371.56"/><path class="cls-2" d="M215.33,175.93a46,46,0,0,1-.4-20.73c1.56-7.07,5.85-18,22.31-30.92,16.23-12.77,36.68-21.53,68.09-27.39,17.8-3.32,50-7.73,93.52-3.52,42.59,4.12,71.31,7.3,94.69,29.35,7,6.62,20.66,19.47,21.13,37.56.78,29.47-33.94,50.08-41.87,54.79-14.51,8.61-26.68,11.09-48.13,15.26a322,322,0,0,1-82.17,5.08c-35.34-2.23-56.36-3.56-80.22-16.43C238.17,206,223.35,187.74,215.33,175.93Z"/><path class="cls-2" d="M436.65,97.83l4.07-19.33-76.41-9-.68-7.43A243.3,243.3,0,0,0,277.54,73c-19.8,6.31-44.94,14.63-68.47,37.18a141.93,141.93,0,0,0-20.74,25L217,148.73"/><polyline class="cls-2" points="489.25 118.93 498.63 101.98 531.5 139.15 512.52 148.73"/><polyline class="cls-2" points="531.5 139.15 558.11 128.98 559.67 134.06 579.17 127.22 574.93 112.94 591.78 88.37"/><polyline class="cls-2" points="582.45 101.98 481.8 20.2 473.59 17.85 380.85 17.85 380.85 71.45"/><polyline class="cls-2" points="361.68 61.98 363.37 17.85 222.37 17.85 79.15 184.15 21.63 255.37 8.74 244.76"/><polygon class="cls-2" points="167.59 91.64 144.5 118.41 181.67 134.46 195.76 113.05 167.59 91.64"/><polygon class="cls-2" points="135.89 126.63 188.33 143.85 188.33 183.37 139.02 200.98 103.41 166.54 135.89 126.63"/><polyline class="cls-2" points="195.76 138.74 197.33 193.76 175.41 221.33"/><polygon class="cls-2" points="201.63 108.63 177.76 85.54 210.24 59.91 268.54 35.06 276.37 65.59 232.94 83.59 201.63 108.63"/><polygon class="cls-2" points="292.02 31.93 296.33 59.91 351.89 55.8 351.89 25.28 320.2 25.28 292.02 31.93"/><path class="cls-2" d="M540.63,135.66c2.26,4.46,11.82,24.43,5.15,46.93a61.45,61.45,0,0,1-18,28.17l-25-20"/><line class="cls-2" x1="527.78" y1="210.76" x2="547.45" y2="225.72"/><polyline class="cls-2" points="481.65 210.76 498.24 239.2 506.06 236.1 518.31 252.33"/><line class="cls-2" x1="432.1" y1="228.87" x2="432.1" y2="272.49"/><line class="cls-2" x1="294.41" y1="230.49" x2="294.41" y2="272.49"/><line class="cls-2" x1="245.31" y1="207.97" x2="218.35" y2="260.55"/><polygon class="cls-2" points="218.35 287.06 252.11 288.63 252.11 321.5 218.35 321.5 218.35 287.06"/><line class="cls-2" x1="39.23" y1="382.06" x2="39.23" y2="423.47"/><line class="cls-2" x1="76.8" y1="378.18" x2="76.8" y2="420.03"/><line class="cls-2" x1="113.24" y1="374.41" x2="113.24" y2="416.69"/><line class="cls-2" x1="148.11" y1="370.8" x2="150.11" y2="413.32"/><line class="cls-2" x1="186.05" y1="366.88" x2="186.05" y2="410.03"/><line class="cls-2" x1="220.02" y1="363.37" x2="220.02" y2="406.91"/><line class="cls-2" x1="0.5" y1="304.28" x2="43.15" y2="303.11"/><polyline class="cls-2" points="53 283.05 27.11 260.55 85.02 190.8 96.76 197.26 109.67 182.98 148.11 221.33"/><polyline class="cls-2" points="505.74 366.73 507.24 320.33 474.4 325.61"/><line class="cls-2" x1="544.75" y1="314.9" x2="544.75" y2="360.51"/><line class="cls-2" x1="580.41" y1="309.74" x2="580.41" y2="354.83"/><line class="cls-2" x1="618.12" y1="304.28" x2="618.12" y2="348.81"/><line class="cls-2" x1="653.5" y1="299.16" x2="653.5" y2="343.53"/><line class="cls-2" x1="690.19" y1="293.85" x2="689.47" y2="337.44"/><path class="cls-2" d="M96,264c3-4.51,6.61-10.22,15.26-16,3.49-2.34,11.22-5.14,17.87-6.4,17.54-3.31,32.43,10.17,34.69,12.53l3.4-4.7a48.34,48.34,0,0,0-21.66-12.78c-16.8-4.55-30.71,1.88-35.47,4.17A56.68,56.68,0,0,0,88.93,258.5Z"/><path class="cls-2" d="M92.07,352.67a31.69,31.69,0,0,1-10.7-1.56c-9.6-3.17-18.32-11.31-20.87-21.39-1.64-6.47-.3-12,1-16.7,3-10.5,9-27.14,21.66-47.74l8.87,7.05a319.22,319.22,0,0,0-15.66,30.52c-2.72,6.11-4.21,10-3.39,14.87,1.62,9.58,11,15.55,12.78,16.69a32.51,32.51,0,0,0,8.87,3.92Z"/><path class="cls-2" d="M187.54,292.93c-2.45-6.8-2.6-12.39-8-20.6-2.15-3.27-7.81-8.57-10-11.22l5.22-6.52a56,56,0,0,1,11.48,10.17A57.85,57.85,0,0,1,199,292.15Z"/><path class="cls-2" d="M200.85,313a84.42,84.42,0,0,1-1.83,8.87c-5.82,15.49-23.15,20.74-26.35,21.65l-3.13-15.26c4.38-1.45,9.46-6.23,14.87-12.91a32.54,32.54,0,0,0,2.87-4.17Z"/><path class="cls-2" d="M163.8,346.15l-.16.06a142.61,142.61,0,0,1-63,8l2.87-14.87a96.38,96.38,0,0,0,23.22,1.3A68.25,68.25,0,0,0,146.59,337a62.23,62.23,0,0,0,12.78-6.26Z"/><path class="cls-2" d="M594.89,213.7a120,120,0,0,0-11,11.73,124,124,0,0,0-23.08,45l-9.2,3.33a104.91,104.91,0,0,1,8.42-26.22,106.47,106.47,0,0,1,30.52-37.95Z"/><path class="cls-2" d="M563.78,295.09l7.63-5.68A135.93,135.93,0,0,0,608,293.33c11.25-.43,18-2.33,23.67-5.29a44.67,44.67,0,0,0,6.26-3.91l2,4.89c-11.66,6.14-37,17.11-64.76,9.59a73.78,73.78,0,0,1-11.35-4.11"/><path class="cls-2" d="M647.33,283.74a44.22,44.22,0,0,0,8.8-4.5A46.38,46.38,0,0,0,676.48,243a44.18,44.18,0,0,0-6.26-23.87l-2.94,3.72a41.79,41.79,0,0,1,4.5,12.13c.55,2.75,3.88,20.8-8.21,34.44a36.6,36.6,0,0,1-14.87,10Z"/><path class="cls-2" d="M664.35,218.39c-10.1-14-25.56-21.81-40.5-19.76a38,38,0,0,0-19,8.61l-2.15-5.87a39.77,39.77,0,0,1,15.45-7c12.41-2.63,22.52,1.74,30.72,5.28,8.46,3.65,12.68,7.53,14.68,9.59a39.3,39.3,0,0,1,4.69,5.87Z"/></g></g></svg>