<?xml version="1.0" encoding="UTF-8"?>
<svg xmlns="http://www.w3.org/2000/svg" viewBox="0 0 726.74 427.57">
  <defs>
    <style>
      .cls-1 {
        stroke: #3a54a4;
      }

      .cls-1, .cls-2 {
        fill: none;
        stroke-miterlimit: 10;
      }

      .cls-2 {
        stroke: #ec2426;
      }
    </style>
  </defs>
  <g id="c2-triggers">
    <polygon id="store" class="cls-2" points="280.93 321.5 242.07 292.93 104.59 359.72 124.15 408.24 221.98 392.06 280.93 321.5"/>
    <polygon id="marketplace" class="cls-2" points="231.83 278.07 43.15 386.07 43.15 278.07 170.13 218.24 231.83 278.07"/>
    <polygon id="library" class="cls-2" points="237.37 160.15 266.07 126.63 367.8 105.24 462.24 121.02 490.82 155.98 451.8 200.98 367.28 218.24 284.85 200.98 237.37 160.15"/>
    <polygon id="c2-entrance" class="cls-2" points="305.46 320.33 419.98 317.98 422.85 277.8 301.02 278.85 305.46 320.33"/>
  </g>
  <g id="c2-decorations">
    <g id="lines">
      <polygon class="cls-1" points="305.72 323.46 420.5 321.37 469.54 372.5 721.54 332.33 726.24 327.11 726.24 193.76 507.63 22.41 515.98 16.67 502.93 7.8 496.67 14.59 479.98 .5 210.24 .5 186.24 28.67 176.85 19.28 164.33 34.93 161.72 31.28 126.76 41.2 129.89 57.89 151.8 74.07 .5 254.59 .5 427.02 225.5 406.41 305.72 323.46"/>
      <polyline class="cls-1" points=".5 386.07 220.02 363.37 220.02 352.41 252.11 348.89 252.11 378.9"/>
      <path class="cls-1" d="M.5,370.8H43.15v-67.7l2.35-11.35,60.65-70.43h69.26c6.08,8.19,14.01,17.2,24.26,25.83,30.7,25.82,64.39,33.16,82.57,35.61l2.35-8.22c12.44-4.17,29.91-8.94,51.26-11.35,3.53-.4,14.47-1.56,27-1.57,16.47-.01,45.12,1.95,81.39,14.87v7.04c10.07-2.18,24.07-5.98,39.91-12.91,13.98-6.11,32.4-14.36,50.48-31.7,4.07-3.9,8.85-8.48,13.59-14.11,6.73-7.99,13.37-18.08,17.72-31.29,8.87-26.93,2.98-50.86-.39-61.43l15.26-5.48,107.61,87.13v66.65l23.48,.78v-43.83l14.35-.39"/>
      <polyline class="cls-1" points="726.24 288.63 507.24 320.33 508.8 288.63 473.59 288.63 475.42 371.56"/>
      <path class="cls-1" d="M215.33,175.93c-1.16-4.76-2.27-12.21-.39-20.74,1.55-7.07,5.84-17.96,22.3-30.91,16.23-12.77,36.68-21.53,68.09-27.39,17.8-3.32,49.96-7.73,93.52-3.52,42.59,4.12,71.31,7.3,94.7,29.35,7.02,6.62,20.65,19.47,21.13,37.57,.78,29.47-33.94,50.08-41.87,54.78-14.52,8.62-26.68,11.1-48.13,15.26-23.87,4.63-51.17,7.05-82.17,5.09-35.34-2.23-56.36-3.56-80.22-16.43-24.12-13.01-38.93-31.24-46.96-43.04Z"/>
      <path class="cls-1" d="M436.65,97.83l4.07-19.33-76.41-9-.68-7.43c-23.48-1.18-53.49,.57-86.09,10.96-19.81,6.31-44.94,14.63-68.48,37.17-9.7,9.29-16.4,18.39-20.74,25.04l28.63,13.49"/>
      <polyline class="cls-1" points="489.25 118.93 498.63 101.98 531.5 139.15 512.52 148.73"/>
      <polyline class="cls-1" points="531.5 139.15 558.11 128.98 559.67 134.07 579.17 127.22 574.93 112.93 591.78 88.37"/>
      <polyline class="cls-1" points="582.45 101.98 481.8 20.2 473.59 17.85 380.85 17.85 380.85 71.45"/>
      <polyline class="cls-1" points="361.68 61.98 363.37 17.85 222.37 17.85 79.15 184.15 21.63 255.37 8.74 244.76"/>
      <polygon class="cls-1" points="167.59 91.64 144.5 118.41 181.67 134.46 195.76 113.05 167.59 91.64"/>
      <polygon class="cls-1" points="135.89 126.63 188.33 143.85 188.33 183.37 139.02 200.98 103.41 166.54 135.89 126.63"/>
      <polyline class="cls-1" points="195.76 138.74 197.33 193.76 175.41 221.33"/>
      <polygon class="cls-1" points="201.63 108.63 177.76 85.54 210.24 59.91 268.54 35.07 276.37 65.59 232.93 83.59 201.63 108.63"/>
      <polygon class="cls-1" points="292.02 31.93 296.33 59.91 351.89 55.8 351.89 25.28 320.2 25.28 292.02 31.93"/>
      <path class="cls-1" d="M540.63,135.66c2.26,4.46,11.82,24.43,5.15,46.93-4.42,14.91-13.53,24.18-18,28.17l-25.03-20.05"/>
      <line class="cls-1" x1="527.78" y1="210.76" x2="547.45" y2="225.72"/>
      <polyline class="cls-1" points="481.65 210.76 498.24 239.2 506.07 236.1 518.31 252.33"/>
      <line class="cls-1" x1="432.1" y1="228.87" x2="432.1" y2="272.49"/>
      <line class="cls-1" x1="294.41" y1="230.49" x2="294.41" y2="272.49"/>
      <line class="cls-1" x1="245.31" y1="207.97" x2="218.35" y2="260.55"/>
      <polygon class="cls-1" points="218.35 287.07 252.11 288.63 252.11 321.5 218.35 321.5 218.35 287.07"/>
      <line class="cls-1" x1="39.23" y1="382.06" x2="39.23" y2="423.47"/>
      <line class="cls-1" x1="76.8" y1="378.18" x2="76.8" y2="420.03"/>
      <line class="cls-1" x1="113.24" y1="374.41" x2="113.24" y2="416.69"/>
      <line class="cls-1" x1="148.11" y1="370.8" x2="150.11" y2="413.32"/>
      <line class="cls-1" x1="186.05" y1="366.88" x2="186.05" y2="410.03"/>
      <line class="cls-1" x1="220.02" y1="363.37" x2="220.02" y2="406.91"/>
      <line class="cls-1" x1=".5" y1="304.28" x2="43.15" y2="303.11"/>
      <polyline class="cls-1" points="53 283.05 27.11 260.55 85.02 190.8 96.76 197.26 109.67 182.98 148.11 221.33"/>
      <polyline class="cls-1" points="505.74 366.73 507.24 320.33 474.4 325.61"/>
      <line class="cls-1" x1="544.75" y1="314.9" x2="544.75" y2="360.51"/>
      <line class="cls-1" x1="580.41" y1="309.74" x2="580.41" y2="354.83"/>
      <line class="cls-1" x1="618.12" y1="304.28" x2="618.12" y2="348.81"/>
      <line class="cls-1" x1="653.5" y1="299.16" x2="653.5" y2="343.53"/>
      <line class="cls-1" x1="690.19" y1="293.85" x2="689.47" y2="337.44"/>
      <path class="cls-1" d="M95.98,263.98c2.97-4.51,6.61-10.22,15.26-16.04,3.49-2.34,11.21-5.14,17.87-6.4,17.54-3.32,32.43,10.17,34.7,12.52l3.39-4.7c-3.39-3.44-10.61-9.79-21.65-12.78-16.81-4.55-30.71,1.88-35.48,4.17-11,5.29-17.7,13.04-21.13,17.74l7.04,5.48Z"/>
      <path class="cls-1" d="M92.07,352.67c-2.43,.06-6.3-.11-10.7-1.57-9.6-3.17-18.32-11.31-20.87-21.39-1.64-6.47-.3-12.01,1.04-16.7,3-10.5,8.98-27.14,21.65-47.74l8.87,7.04c-7.15,12.3-12.21,22.79-15.65,30.52-2.72,6.11-4.21,10.01-3.39,14.87,1.62,9.58,11,15.56,12.78,16.7,3.48,2.22,6.73,3.33,8.87,3.91l-2.61,14.35Z"/>
      <path class="cls-1" d="M187.54,292.93c-2.45-6.81-2.61-12.39-8.02-20.61-2.15-3.27-7.81-8.57-9.98-11.22l5.22-6.52c3.46,2.31,7.56,5.59,11.48,10.17,8.82,10.32,11.71,21.41,12.78,27.39l-11.48,.78Z"/>
      <path class="cls-1" d="M200.85,313.02s-1.13,7.01-1.83,8.87c-5.82,15.49-23.15,20.74-26.35,21.65l-3.13-15.26c4.38-1.45,9.46-6.23,14.87-12.91,1.14-1.41,2.08-2.82,2.87-4.17l13.57,1.83Z"/>
      <path class="cls-1" d="M163.8,346.15l-.17,.06c-7.94,2.91-18.28,5.9-30.61,7.5-12.71,1.66-23.78,1.36-32.35,.52l2.87-14.87c9.47,1.68,17.47,1.68,23.22,1.3,5.38-.35,11.87-.83,19.83-3.65,5.5-1.95,9.8-4.35,12.78-6.26l4.43,15.39Z"/>
      <path class="cls-1" d="M594.89,213.7c-3.62,3.39-7.33,7.28-10.96,11.74-13.04,16.01-19.61,32.61-23.09,45l-9.2,3.33c1.32-7.31,3.76-16.43,8.41-26.22,9.16-19.29,22.26-31.46,30.52-37.96l4.3,4.11Z"/>
      <path class="cls-1" d="M563.78,295.09l7.63-5.67c9.39,2.27,22.29,4.45,36.59,3.91,11.25-.42,17.95-2.32,23.67-5.28,2.72-1.41,4.83-2.85,6.26-3.91l1.96,4.89c-11.66,6.14-36.96,17.11-64.76,9.59-4.09-1.11-7.87-2.51-11.35-4.11"/>
      <path class="cls-1" d="M647.33,283.74c2.3-.87,5.43-2.26,8.8-4.5,2.34-1.55,9.8-6.82,15.07-16.83,4.83-9.19,5.22-17.46,5.28-19.37,.37-11.55-4.05-20.16-6.26-23.87l-2.93,3.72c1.46,2.61,3.42,6.76,4.5,12.13,.55,2.74,3.88,20.8-8.22,34.43-2.23,2.52-6.91,7.04-14.87,9.98l-1.37,4.3Z"/>
      <path class="cls-1" d="M664.35,218.39c-10.1-14.01-25.56-21.81-40.5-19.76-8.88,1.22-15.35,5.6-18.98,8.61l-2.15-5.87c6.16-4.53,11.85-6.28,15.46-7.04,12.4-2.62,22.51,1.74,30.72,5.28,8.46,3.65,12.68,7.53,14.67,9.59,1.95,2.01,3.49,4.03,4.7,5.87l-3.91,3.33Z"/>
    </g>
  </g>
</svg>